<svg xmlns="http://www.w3.org/2000/svg" xmlns:xlink="http://www.w3.org/1999/xlink" width="427" zoomAndPan="magnify" viewBox="0 0 320.25 713.999984" height="952" preserveAspectRatio="xMidYMid meet" version="1.0"><defs><clipPath id="6040e0b78a"><path d="M 0 0.835938 L 319.5 0.835938 L 319.5 713.164062 L 0 713.164062 Z M 0 0.835938 " clip-rule="nonzero"/></clipPath><clipPath id="0139aeabb5"><path d="M 0 0.835938 L 95 0.835938 L 95 105.179688 L 0 105.179688 Z M 0 0.835938 " clip-rule="nonzero"/></clipPath><clipPath id="8472e82792"><path d="M 225 609 L 319.5 609 L 319.5 713.164062 L 225 713.164062 Z M 225 609 " clip-rule="nonzero"/></clipPath><clipPath id="36749850e5"><path d="M 233 0.835938 L 319.5 0.835938 L 319.5 116 L 233 116 Z M 233 0.835938 " clip-rule="nonzero"/></clipPath><clipPath id="1aea5c94dc"><path d="M 242.863281 122.96875 L 231.453125 -4.472656 L 317.90625 -12.210938 L 329.3125 115.230469 Z M 242.863281 122.96875 " clip-rule="nonzero"/></clipPath><clipPath id="4ed18e1455"><path d="M 242.863281 122.96875 L 231.453125 -4.472656 L 317.90625 -12.210938 L 329.3125 115.230469 Z M 242.863281 122.96875 " clip-rule="nonzero"/></clipPath><clipPath id="afd2a96a96"><path d="M 0 597 L 95 597 L 95 713.164062 L 0 713.164062 Z M 0 597 " clip-rule="nonzero"/></clipPath><clipPath id="bbe3321646"><path d="M 86.65625 591.089844 L 96.253906 718.679688 L 9.699219 725.1875 L 0.105469 597.597656 Z M 86.65625 591.089844 " clip-rule="nonzero"/></clipPath><clipPath id="fc1883cab9"><path d="M 86.65625 591.089844 L 96.253906 718.679688 L 9.699219 725.1875 L 0.105469 597.597656 Z M 86.65625 591.089844 " clip-rule="nonzero"/></clipPath></defs><g clip-path="url(#6040e0b78a)"><path fill="#ffffff" d="M 0 0.835938 L 319.5 0.835938 L 319.5 713.164062 L 0 713.164062 Z M 0 0.835938 " fill-opacity="1" fill-rule="nonzero"/><path fill="#ff9d42" d="M 0 0.835938 L 319.5 0.835938 L 319.5 713.164062 L 0 713.164062 Z M 0 0.835938 " fill-opacity="1" fill-rule="nonzero"/></g><g clip-path="url(#0139aeabb5)"><path fill="#ff5757" d="M 56.367188 33.160156 C 66.511719 35.652344 75.277344 37.761719 84.015625 39.972656 C 86.890625 40.511719 89.652344 41.394531 92.308594 42.621094 C 95.835938 44.539062 95.507812 48.125 92 50.070312 C 89.757812 51.066406 87.417969 51.421875 84.980469 51.140625 C 74.078125 50.988281 63.152344 51.566406 52.300781 49.796875 C 48.914062 49.429688 45.519531 49.234375 42.109375 49.210938 C 43.996094 54.894531 47.546875 58.761719 50.640625 62.890625 C 54.953125 68.640625 59.339844 74.324219 63.609375 80.101562 C 65.320312 82.414062 67.609375 84.847656 64.609375 87.78125 C 61.847656 90.480469 59.082031 88.757812 56.574219 87.351562 C 49.078125 83.121094 42.539062 77.730469 36.949219 71.183594 C 35.824219 69.875 35.253906 67.75 32.285156 67.890625 C 30.945312 77.800781 28.527344 87.441406 25.035156 96.808594 C 24.25 98.785156 23.5 100.777344 22.589844 102.6875 C 22.429688 103.132812 22.203125 103.539062 21.90625 103.90625 C 21.609375 104.273438 21.257812 104.578125 20.851562 104.828125 C 20.449219 105.074219 20.015625 105.242188 19.554688 105.339844 C 19.089844 105.4375 18.625 105.453125 18.15625 105.390625 C 17.621094 105.332031 17.109375 105.179688 16.628906 104.9375 C 16.144531 104.695312 15.722656 104.375 15.355469 103.980469 C 14.984375 103.585938 14.699219 103.136719 14.492188 102.636719 C 14.289062 102.136719 14.175781 101.617188 14.15625 101.078125 C 13.914062 98.414062 14.070312 95.769531 14.628906 93.148438 C 16.3125 82.6875 17.890625 72.207031 19.46875 62 C 17.273438 59.9375 15.613281 61.375 13.960938 61.859375 C 2.484375 65.238281 -8.972656 68.6875 -20.457031 72.027344 C -24 73.058594 -28.421875 74.835938 -30.1875 70.171875 C -31.878906 65.722656 -27.664062 63.75 -24.367188 61.988281 C -16.625 57.839844 -8.835938 53.789062 -1.09375 49.648438 C 0.953125 48.554688 3.460938 48.152344 5.304688 45.210938 C -1.632812 43.929688 -8.230469 42.773438 -14.796875 41.464844 C -17.9375 40.910156 -21.015625 40.109375 -24.027344 39.0625 C -24.554688 38.917969 -25.035156 38.683594 -25.46875 38.355469 C -25.902344 38.027344 -26.261719 37.628906 -26.546875 37.164062 C -26.828125 36.699219 -27.015625 36.195312 -27.105469 35.660156 C -27.195312 35.121094 -27.183594 34.585938 -27.070312 34.054688 C -26.972656 33.519531 -26.789062 33.019531 -26.515625 32.550781 C -26.238281 32.082031 -25.890625 31.679688 -25.46875 31.335938 C -25.046875 30.996094 -24.578125 30.738281 -24.066406 30.5625 C -23.550781 30.390625 -23.023438 30.3125 -22.480469 30.328125 C -18.222656 30.246094 -13.960938 30.289062 -9.699219 30.285156 C -5.488281 30.285156 -1.273438 30.285156 2.84375 30.285156 C 3.578125 27.375 1.71875 25.902344 0.644531 24.175781 C -4.003906 17.03125 -8.222656 9.640625 -12.015625 2.007812 C -13.207031 -0.519531 -14.089844 -3.15625 -11.535156 -5.265625 C -8.683594 -7.617188 -5.839844 -6.332031 -3.6875 -4.15625 C 2.867188 2.460938 9.25 9.246094 15.648438 16.015625 C 18.363281 18.886719 20.953125 21.878906 24.308594 25.601562 C 27.296875 19.230469 27.546875 13.179688 28.035156 7.375 C 29.148438 -5.953125 32.390625 -18.824219 35.414062 -31.753906 C 36.238281 -35.292969 37.21875 -39.863281 42.078125 -39.300781 C 46.746094 -38.757812 47.1875 -34.128906 47.210938 -30.5 C 47.402344 -14.511719 46.238281 1.378906 43.710938 17.167969 C 43.644531 17.9375 43.636719 18.710938 43.695312 19.480469 C 46.714844 19.234375 48.417969 16.996094 50.386719 15.304688 C 58.445312 8.683594 67.191406 3.148438 76.621094 -1.304688 C 77.796875 -1.929688 79.019531 -2.453125 80.28125 -2.871094 C 80.78125 -3.078125 81.296875 -3.207031 81.832031 -3.253906 C 82.367188 -3.296875 82.898438 -3.261719 83.421875 -3.144531 C 83.949219 -3.027344 84.441406 -2.832031 84.90625 -2.5625 C 85.371094 -2.292969 85.785156 -1.957031 86.144531 -1.558594 C 87.871094 0.386719 87.125 2.363281 86.09375 4.347656 C 84.550781 6.867188 82.628906 9.054688 80.332031 10.914062 C 72.777344 17.972656 65.179688 24.984375 56.367188 33.160156 Z M 56.367188 33.160156 " fill-opacity="1" fill-rule="nonzero"/></g><g clip-path="url(#8472e82792)"><path fill="#ff5757" d="M 311.96875 681.59375 C 322.113281 684.082031 330.878906 686.191406 339.617188 688.402344 C 342.492188 688.945312 345.253906 689.828125 347.910156 691.054688 C 351.4375 692.96875 351.109375 696.558594 347.601562 698.503906 C 345.359375 699.5 343.019531 699.855469 340.582031 699.574219 C 329.679688 699.421875 318.753906 699.996094 307.902344 698.230469 C 304.515625 697.863281 301.117188 697.664062 297.710938 697.640625 C 299.597656 703.328125 303.148438 707.191406 306.242188 711.324219 C 310.554688 717.074219 314.941406 722.753906 319.210938 728.53125 C 320.921875 730.847656 323.210938 733.28125 320.210938 736.210938 C 317.449219 738.910156 314.683594 737.191406 312.175781 735.785156 C 304.679688 731.550781 298.140625 726.160156 292.550781 719.613281 C 291.425781 718.304688 290.855469 716.183594 287.886719 716.324219 C 286.546875 726.234375 284.128906 735.871094 280.636719 745.238281 C 279.851562 747.214844 279.101562 749.207031 278.191406 751.121094 C 278.03125 751.566406 277.804688 751.972656 277.507812 752.339844 C 277.210938 752.703125 276.859375 753.011719 276.453125 753.257812 C 276.050781 753.503906 275.617188 753.675781 275.15625 753.773438 C 274.691406 753.867188 274.226562 753.886719 273.757812 753.824219 C 273.222656 753.761719 272.710938 753.613281 272.230469 753.371094 C 271.746094 753.128906 271.324219 752.808594 270.953125 752.410156 C 270.585938 752.015625 270.300781 751.570312 270.09375 751.070312 C 269.890625 750.570312 269.777344 750.050781 269.757812 749.511719 C 269.515625 746.84375 269.671875 744.199219 270.230469 741.582031 C 271.914062 731.117188 273.492188 720.640625 275.070312 710.429688 C 272.875 708.367188 271.214844 709.804688 269.5625 710.292969 C 258.085938 713.667969 246.628906 717.121094 235.144531 720.457031 C 231.601562 721.492188 227.179688 723.269531 225.414062 718.601562 C 223.722656 714.152344 227.9375 712.183594 231.234375 710.417969 C 238.976562 706.269531 246.765625 702.21875 254.507812 698.082031 C 256.554688 696.988281 259.058594 696.582031 260.90625 693.644531 C 253.96875 692.359375 247.371094 691.207031 240.804688 689.894531 C 237.664062 689.339844 234.585938 688.539062 231.574219 687.496094 C 231.046875 687.351562 230.566406 687.113281 230.132812 686.785156 C 229.699219 686.457031 229.339844 686.0625 229.054688 685.59375 C 228.773438 685.128906 228.585938 684.628906 228.496094 684.089844 C 228.40625 683.550781 228.417969 683.015625 228.53125 682.484375 C 228.625 681.949219 228.8125 681.449219 229.085938 680.980469 C 229.363281 680.515625 229.710938 680.109375 230.132812 679.769531 C 230.554688 679.425781 231.023438 679.167969 231.535156 678.996094 C 232.050781 678.820312 232.578125 678.742188 233.121094 678.761719 C 237.378906 678.679688 241.640625 678.722656 245.898438 678.71875 C 250.113281 678.71875 254.328125 678.71875 258.445312 678.71875 C 259.179688 675.804688 257.320312 674.335938 256.246094 672.609375 C 251.597656 665.460938 247.378906 658.074219 243.585938 650.4375 C 242.394531 647.914062 241.511719 645.277344 244.066406 643.164062 C 246.917969 640.8125 249.761719 642.101562 251.914062 644.273438 C 258.46875 650.890625 264.851562 657.675781 271.25 664.445312 C 273.964844 667.320312 276.554688 670.308594 279.910156 674.035156 C 282.898438 667.660156 283.148438 661.613281 283.636719 655.804688 C 284.75 642.476562 287.992188 629.605469 291.015625 616.679688 C 291.839844 613.140625 292.820312 608.566406 297.679688 609.128906 C 302.347656 609.671875 302.789062 614.300781 302.8125 617.929688 C 303.003906 633.921875 301.839844 649.808594 299.3125 665.601562 C 299.246094 666.371094 299.238281 667.140625 299.296875 667.910156 C 302.316406 667.664062 304.019531 665.425781 305.988281 663.734375 C 314.046875 657.117188 322.792969 651.582031 332.222656 647.125 C 333.398438 646.5 334.621094 645.980469 335.882812 645.558594 C 336.382812 645.351562 336.898438 645.226562 337.433594 645.179688 C 337.96875 645.132812 338.5 645.167969 339.023438 645.285156 C 339.550781 645.402344 340.042969 645.597656 340.507812 645.871094 C 340.972656 646.140625 341.386719 646.476562 341.746094 646.875 C 343.472656 648.820312 342.726562 650.792969 341.695312 652.777344 C 340.152344 655.296875 338.230469 657.488281 335.929688 659.347656 C 328.378906 666.402344 320.78125 673.417969 311.96875 681.59375 Z M 311.96875 681.59375 " fill-opacity="1" fill-rule="nonzero"/></g><g clip-path="url(#36749850e5)"><g clip-path="url(#1aea5c94dc)"><g clip-path="url(#4ed18e1455)"><path fill="#ffffff" d="M 246.136719 -5.554688 C 245.234375 -5.46875 244.3125 -5.410156 243.453125 -5.09375 C 242.625 -4.722656 241.90625 -4.148438 241.175781 -3.617188 C 238.289062 -1.632812 236.363281 1.46875 235.117188 4.6875 C 233.503906 8.976562 233.085938 13.734375 234.054688 18.222656 C 234.746094 21.414062 236.144531 24.457031 238.164062 27.027344 C 240.007812 29.40625 242.34375 31.371094 244.847656 33.023438 C 247.914062 35.0625 251.253906 36.632812 254.472656 38.402344 C 257.082031 39.863281 259.734375 41.445312 261.648438 43.792969 C 262.863281 45.25 263.566406 47.25 263.050781 49.128906 C 262.425781 51.414062 260.652344 53.121094 258.957031 54.671875 C 255.125 58.050781 250.851562 61.042969 247.847656 65.246094 C 245.390625 68.601562 243.902344 72.71875 243.988281 76.898438 C 244.042969 82.042969 246.507812 87.023438 250.359375 90.394531 C 254.457031 94.066406 260.066406 95.757812 265.511719 95.625 C 270.9375 95.546875 276.117188 93.617188 280.929688 91.261719 C 284.808594 89.421875 288.574219 87.234375 292.757812 86.128906 C 296.070312 85.246094 299.679688 85.15625 302.925781 86.347656 C 305.683594 87.347656 308.109375 89.390625 309.304688 92.097656 C 310.382812 94.457031 310.511719 97.089844 310.738281 99.636719 C 310.996094 102.695312 311.363281 105.835938 312.742188 108.625 C 314.171875 111.566406 316.898438 113.828125 320.03125 114.75 C 322.3125 115.402344 324.773438 115.609375 327.097656 115.070312 C 328.226562 114.855469 329.257812 113.773438 328.953125 112.566406 C 328.757812 110.632812 328.59375 108.699219 328.417969 106.765625 C 327.957031 101.949219 327.789062 97.097656 327.023438 92.3125 C 326.730469 90.789062 326.253906 89 324.742188 88.253906 C 322.800781 87.082031 320.402344 87.882812 318.382812 86.984375 C 316.933594 86.375 315.863281 85.113281 315.195312 83.722656 C 314.023438 81.296875 313.644531 78.59375 313.378906 75.945312 C 313.160156 73.851562 312.855469 71.683594 311.753906 69.84375 C 310.148438 67.121094 307.164062 65.40625 304.089844 64.925781 C 301.503906 64.496094 298.863281 65.035156 296.457031 65.996094 C 291.574219 67.921875 287.203125 71.089844 282.035156 72.289062 C 279.980469 72.761719 277.632812 72.953125 275.761719 71.785156 C 274.203125 70.835938 273.589844 68.882812 273.730469 67.140625 C 273.925781 64.042969 275.441406 61.230469 277.027344 58.628906 C 279.066406 55.371094 281.511719 52.3125 282.902344 48.6875 C 284.683594 44.242188 284.625 39.109375 282.777344 34.691406 C 281.515625 31.652344 279.378906 29.015625 276.78125 27.011719 C 274.214844 24.988281 271.195312 23.671875 268.214844 22.382812 C 265.527344 21.210938 262.800781 19.949219 260.65625 17.894531 C 258.480469 15.882812 257.101562 13.128906 256.46875 10.257812 C 255.402344 5.488281 255.882812 0.457031 257.417969 -4.160156 C 257.570312 -4.691406 257.851562 -5.351562 257.460938 -5.847656 C 256.917969 -6.394531 256.066406 -6.300781 255.363281 -6.316406 C 252.28125 -6.144531 249.214844 -5.8125 246.136719 -5.554688 Z M 246.136719 -5.554688 " fill-opacity="1" fill-rule="nonzero"/></g></g></g><g clip-path="url(#afd2a96a96)"><g clip-path="url(#bbe3321646)"><g clip-path="url(#fc1883cab9)"><path fill="#ffffff" d="M 81.554688 719.554688 C 82.457031 719.476562 83.382812 719.433594 84.242188 719.132812 C 85.078125 718.769531 85.804688 718.207031 86.542969 717.6875 C 89.457031 715.742188 91.429688 712.671875 92.71875 709.46875 C 94.394531 705.199219 94.882812 700.453125 93.976562 695.949219 C 93.328125 692.746094 91.972656 689.6875 89.992188 687.085938 C 88.179688 684.679688 85.875 682.6875 83.394531 680.996094 C 80.355469 678.914062 77.039062 677.296875 73.84375 675.484375 C 71.257812 673.980469 68.628906 672.367188 66.746094 669.988281 C 65.554688 668.515625 64.875 666.507812 65.421875 664.636719 C 66.078125 662.359375 67.875 660.675781 69.59375 659.148438 C 73.472656 655.824219 77.789062 652.894531 80.851562 648.734375 C 83.355469 645.417969 84.902344 641.320312 84.875 637.136719 C 84.894531 631.992188 82.5 626.976562 78.695312 623.554688 C 74.652344 619.824219 69.070312 618.054688 63.621094 618.105469 C 58.195312 618.105469 52.988281 619.964844 48.144531 622.253906 C 44.238281 624.039062 40.441406 626.171875 36.242188 627.214844 C 32.917969 628.050781 29.308594 628.089844 26.078125 626.851562 C 23.335938 625.8125 20.941406 623.734375 19.78125 621.015625 C 18.738281 618.636719 18.644531 616.003906 18.457031 613.453125 C 18.242188 610.390625 17.917969 607.246094 16.578125 604.4375 C 15.191406 601.476562 12.5 599.175781 9.378906 598.210938 C 7.105469 597.527344 4.648438 597.285156 2.316406 597.789062 C 1.183594 597.988281 0.140625 599.054688 0.425781 600.265625 C 0.59375 602.199219 0.734375 604.136719 0.878906 606.070312 C 1.269531 610.894531 1.371094 615.75 2.070312 620.542969 C 2.339844 622.074219 2.792969 623.867188 4.292969 624.636719 C 6.214844 625.835938 8.625 625.066406 10.632812 625.996094 C 12.070312 626.625 13.125 627.902344 13.773438 629.304688 C 14.910156 631.742188 15.25 634.449219 15.476562 637.105469 C 15.667969 639.203125 15.941406 641.375 17.019531 643.230469 C 18.582031 645.972656 21.542969 647.730469 24.613281 648.253906 C 27.191406 648.722656 29.835938 648.21875 32.257812 647.292969 C 37.164062 645.4375 41.582031 642.332031 46.765625 641.207031 C 48.828125 640.761719 51.179688 640.601562 53.03125 641.800781 C 54.578125 642.769531 55.164062 644.730469 54.996094 646.472656 C 54.757812 649.570312 53.203125 652.359375 51.582031 654.933594 C 49.492188 658.167969 47.007812 661.1875 45.566406 664.792969 C 43.71875 669.214844 43.707031 674.347656 45.488281 678.789062 C 46.710938 681.847656 48.804688 684.515625 51.375 686.554688 C 53.914062 688.617188 56.914062 689.972656 59.875 691.304688 C 62.546875 692.511719 65.257812 693.816406 67.371094 695.898438 C 69.519531 697.941406 70.855469 700.714844 71.449219 703.59375 C 72.449219 708.378906 71.894531 713.402344 70.296875 717.996094 C 70.136719 718.527344 69.84375 719.183594 70.226562 719.6875 C 70.761719 720.238281 71.613281 720.15625 72.320312 720.179688 C 75.402344 720.054688 78.476562 719.765625 81.554688 719.554688 Z M 81.554688 719.554688 " fill-opacity="1" fill-rule="nonzero"/></g></g></g></svg>